<?xml version="1.0" standalone="no"?>
<!DOCTYPE svg PUBLIC "-//W3C//DTD SVG 1.1//EN" "http://www.w3.org/Graphics/SVG/1.1/DTD/svg11.dtd" >
<svg xmlns="http://www.w3.org/2000/svg">
<metadata>
Created by FontForge 20120731 at Tue Oct 25 11:04:54 2016
 By admin
</metadata>
<defs>
<font id="iconfont" horiz-adv-x="1024" >
  <font-face 
    font-family="iconfont"
    font-weight="500"
    font-stretch="normal"
    units-per-em="1024"
    panose-1="2 0 6 3 0 0 0 0 0 0"
    ascent="896"
    descent="-128"
    x-height="792"
    bbox="0 -174 1248 896"
    underline-thickness="50"
    underline-position="-100"
    unicode-range="U+0078-E622"
  />
<missing-glyph horiz-adv-x="374" 
d="M34 0v682h272v-682h-272zM68 34h204v614h-204v-614z" />
    <glyph glyph-name=".notdef" horiz-adv-x="374" 
d="M34 0v682h272v-682h-272zM68 34h204v614h-204v-614z" />
    <glyph glyph-name=".null" horiz-adv-x="0" 
 />
    <glyph glyph-name="nonmarkingreturn" horiz-adv-x="341" 
 />
    <glyph glyph-name="x" unicode="x" horiz-adv-x="1001" 
d="M281 543q-27 -1 -53 -1h-83q-18 0 -36.5 -6t-32.5 -18.5t-23 -32t-9 -45.5v-76h912v41q0 16 -0.5 30t-0.5 18q0 13 -5 29t-17 29.5t-31.5 22.5t-49.5 9h-133v-97h-438v97zM955 310v-52q0 -23 0.5 -52t0.5 -58t-10.5 -47.5t-26 -30t-33 -16t-31.5 -4.5q-14 -1 -29.5 -0.5
t-29.5 0.5h-32l-45 128h-439l-44 -128h-29h-34q-20 0 -45 1q-25 0 -41 9.5t-25.5 23t-13.5 29.5t-4 30v167h911zM163 247q-12 0 -21 -8.5t-9 -21.5t9 -21.5t21 -8.5q13 0 22 8.5t9 21.5t-9 21.5t-22 8.5zM316 123q-8 -26 -14 -48q-5 -19 -10.5 -37t-7.5 -25t-3 -15t1 -14.5
t9.5 -10.5t21.5 -4h37h67h81h80h64h36q23 0 34 12t2 38q-5 13 -9.5 30.5t-9.5 34.5q-5 19 -11 39h-368zM336 498v228q0 11 2.5 23t10 21.5t20.5 15.5t34 6h188q31 0 51.5 -14.5t20.5 -52.5v-227h-327z" />
    <glyph glyph-name="uniE600" unicode="&#xe600;" 
d="M576 160l96 -96l320 320l-320 320l-96 -96l224 -224zM448 608l-96 96l-320 -320l320 -320l96 96l-224 224z" />
    <glyph glyph-name="uniE601" unicode="&#xe601;" horiz-adv-x="1291" 
d="M832 160l96 -96l320 320l-320 320l-96 -96l224 -224zM448 608l-96 96l-320 -320l320 -320l96 96l-224 224zM701 745l70 -18l-192 -704l-70 18z" />
    <glyph glyph-name="uniE602" unicode="&#xe602;" 
d="M832 0h-640v128l192 320l263 -320l185 128v-256zM832 416q0 -40 -28 -68t-68 -28t-68 28t-28 68t28 68t68 28t68 -28t28 -68zM918 667q-35 47 -87 100q-53 52 -100 87q-58 42 -91 42h-496q-33 0 -56.5 -23.5t-23.5 -56.5v-864q0 -33 23.5 -56.5t56.5 -23.5h736
q33 0 56.5 23.5t23.5 56.5v624q0 33 -42 91zM785.5 721.5q42.5 -42.5 72.5 -81.5h-154v154q39 -30 81.5 -72.5zM896 -48q0 -7 -4.5 -11.5t-11.5 -4.5h-736q-7 0 -11.5 4.5t-4.5 11.5v864q0 7 4.5 11.5t11.5 4.5h496v-224q0 -13 9.5 -22.5t22.5 -9.5h224v-624z" />
    <glyph glyph-name="uniE603" unicode="&#xe603;" 
d="M384 512l320 -224l-320 -224v448zM918 667q-35 47 -87 100q-53 52 -100 87q-58 42 -91 42h-496q-33 0 -56.5 -23.5t-23.5 -56.5v-864q0 -33 23.5 -56.5t56.5 -23.5h736q33 0 56.5 23.5t23.5 56.5v624q0 33 -42 91zM785.5 721.5q42.5 -42.5 72.5 -81.5h-154v154
q39 -30 81.5 -72.5zM896 -48q0 -7 -4.5 -11.5t-11.5 -4.5h-736q-7 0 -11.5 4.5t-4.5 11.5v864q0 7 4.5 11.5t11.5 4.5h496v-224q0 -13 9.5 -22.5t22.5 -9.5h224v-624z" />
    <glyph glyph-name="uniE604" unicode="&#xe604;" 
d="M896 832v-64h-128l-320 -768h128v-64h-448v64h128l320 768h-128v64h448z" />
    <glyph glyph-name="uniE605" unicode="&#xe605;" 
d="M440 260q-21 0 -37 15q-71 72 -71 173t71 173l192 192q72 71 173 71t172.5 -71.5t71.5 -172.5t-71 -173l-88 -87q-15 -15 -36.5 -15t-37 15t-15.5 36.5t15 36.5l88 88q41 41 41 99t-41 99t-99 41t-99 -41l-192 -192q-41 -41 -41 -99t41 -99q15 -15 15 -36.5t-15 -37
t-37 -15.5zM256 -116q-101 0 -172.5 71.5t-71.5 172.5t71 173l88 87q15 16 37 16t37 -15.5t15 -37t-15 -36.5l-88 -88q-41 -41 -41 -99t41 -99t99 -41t99 41l192 192q41 41 41 99t-41 99q-15 15 -15 36.5t15 37t36.5 15.5t37.5 -15q71 -72 71 -173t-71 -173l-192 -192
q-72 -71 -173 -71z" />
    <glyph glyph-name="uniE606" unicode="&#xe606;" 
d="M0 896h256v-256h-256v256zM384 832h640v-128h-640v128zM0 512h256v-256h-256v256zM384 448h640v-128h-640v128zM0 128h256v-256h-256v256zM384 64h640v-128h-640v128z" />
    <glyph glyph-name="uniE607" unicode="&#xe607;" 
d="M384 832h640v-128h-640v128zM384 448h640v-128h-640v128zM384 64h640v-128h-640v128zM0 768q0 53 37.5 90.5t90.5 37.5t90.5 -37.5t37.5 -90.5t-37.5 -90.5t-90.5 -37.5t-90.5 37.5t-37.5 90.5zM0 384q0 53 37.5 90.5t90.5 37.5t90.5 -37.5t37.5 -90.5t-37.5 -90.5
t-90.5 -37.5t-90.5 37.5t-37.5 90.5zM0 0q0 53 37.5 90.5t90.5 37.5t90.5 -37.5t37.5 -90.5t-37.5 -90.5t-90.5 -37.5t-90.5 37.5t-37.5 90.5z" />
    <glyph glyph-name="uniE608" unicode="&#xe608;" 
d="M384 64h640v-128h-640v128zM384 448h640v-128h-640v128zM384 832h640v-128h-640v128zM192 896v-256h-64v192h-64v64h128zM128 370v-50h128v-64h-192v146l128 60v50h-128v64h192v-146zM256 192v-320h-192v64h128v64h-128v64h128v64h-128v64h192z" />
    <glyph glyph-name="uniE609" unicode="&#xe609;" 
d="M64 704h896v-192h-896v192zM64 448h896v-192h-896v192zM64 192h896v-192h-896v192z" />
    <glyph glyph-name="uniE60A" unicode="&#xe60a;" 
d="M0 832h1024v-128h-1024v128zM192 640h640v-128h-640v128zM192 256h640v-128h-640v128zM0 448h1024v-128h-1024v128zM0 64h1024v-128h-1024v128z" />
    <glyph glyph-name="uniE60B" unicode="&#xe60b;" 
d="M0 832h1024v-128h-1024v128zM0 640h1024v-128h-1024v128zM0 448h1024v-128h-1024v128zM0 256h1024v-128h-1024v128zM0 64h1024v-128h-1024v128z" />
    <glyph glyph-name="uniE60C" unicode="&#xe60c;" 
d="M0 832h1024v-128h-1024v128zM0 640h640v-128h-640v128zM0 256h640v-128h-640v128zM0 448h1024v-128h-1024v128zM0 64h1024v-128h-1024v128z" />
    <glyph glyph-name="uniE60D" unicode="&#xe60d;" 
d="M0 832h1024v-128h-1024v128zM384 640h640v-128h-640v128zM384 256h640v-128h-640v128zM0 448h1024v-128h-1024v128zM0 64h1024v-128h-1024v128z" />
    <glyph glyph-name="uniE60E" unicode="&#xe60e;" horiz-adv-x="1026" 
d="M225 448q93 0 158.5 -65.5t65.5 -158.5t-65.5 -158.5t-158.5 -65.5t-158.5 65.5t-65.5 158.5l-1 32q0 91 35.5 174t95.5 143t143 95.5t174 35.5v-128q-133 0 -226 -94q-18 -17 -32 -37q17 3 35 3zM801 448q93 0 158.5 -65.5t65.5 -158.5t-65.5 -158.5t-158.5 -65.5
t-158.5 65.5t-65.5 158.5l-1 32q0 91 35.5 174t95.5 143t143 95.5t174 35.5v-128q-133 0 -226 -94q-18 -17 -32 -37q17 3 35 3z" />
    <glyph glyph-name="uniE60F" unicode="&#xe60f;" horiz-adv-x="1026" 
d="M800 256q-93 0 -158.5 65.5t-65.5 158.5t65.5 158.5t158.5 65.5t158.5 -65.5t65.5 -158.5l1 -32q0 -91 -35.5 -174t-95.5 -143t-143 -95.5t-174 -35.5v128q133 0 226 94q18 17 32 37q-17 -3 -35 -3zM224 256q-93 0 -158.5 65.5t-65.5 158.5t65.5 158.5t158.5 65.5
t158.5 -65.5t65.5 -158.5l1 -32q0 -91 -35.5 -174t-95.5 -143t-143 -95.5t-174 -35.5v128q133 0 226 94q18 17 32 37q-17 -3 -35 -3z" />
    <glyph glyph-name="uniE610" unicode="&#xe610;" 
d="M0 320q0 -113 46 -212.5t127 -171.5l85 96q-61 54 -95.5 129t-34.5 159q0 104 51.5 192.5t140 140t192.5 51.5q78 0 148 -29.5t124 -82.5l-144 -144h384v384l-150 -150q-71 71 -164.5 110.5t-197.5 39.5t-199 -40.5t-163.5 -109t-109 -163.5t-40.5 -199z" />
    <glyph glyph-name="uniE611" unicode="&#xe611;" 
d="M0 704v-704h1024v704h-1024zM384 256v128h256v-128h-256zM640 192v-128h-256v128h256zM640 576v-128h-256v128h256zM320 576v-128h-256v128h256zM64 384h256v-128h-256v128zM704 384h256v-128h-256v128zM704 448v128h256v-128h-256zM64 192h256v-128h-256v128zM704 64
v128h256v-128h-256z" />
    <glyph glyph-name="uniE612" unicode="&#xe612;" 
d="M512 700q79 0 151 -30q70 -30 123.5 -83.5t83.5 -123.5q30 -72 30 -151t-30 -151q-30 -70 -83.5 -123.5t-123.5 -83.5q-72 -30 -151 -30t-151 30q-70 30 -123.5 83.5t-83.5 123.5q-30 72 -30 151t30 151q30 70 83.5 123.5t123.5 83.5q72 30 151 30zM512 760
q-122 0 -225 -60t-163 -163t-60 -225t60 -225t163 -163t225 -60t225 60t163 163t60 225t-60 225t-163 163t-225 60zM364 539zM304 539q0 25 18 43t42.5 18t42.5 -18t18 -43t-18 -42.5t-42.5 -17.5t-42.5 17.5t-18 42.5zM644 539zM584 539q0 25 17.5 43t42.5 18t43 -18
t18 -43t-18 -42.5t-43 -17.5t-42.5 17.5t-17.5 42.5zM512 24q117 0 199.5 82.5t82.5 199.5h-564q0 -117 82.5 -199.5t199.5 -82.5z" />
    <glyph glyph-name="uniE613" unicode="&#xe613;" 
d="M0 0h1024v-64h-1024v64zM1024 128v-64h-1024v64l128 256h256v-128h256v128h256zM224 576l288 288l288 -288h-224v-256h-128v256h-224z" />
    <glyph glyph-name="uniE614" unicode="&#xe614;" 
d="M512 832q-104 0 -197.5 -39.5t-164.5 -110.5l-150 150v-384h384l-144 144q54 53 124 82.5t148 29.5q159 0 271.5 -112.5t112.5 -271.5q0 -84 -34.5 -159t-95.5 -129l85 -96q81 72 127 171.5t46 212.5q0 104 -40.5 199t-109 163.5t-163.5 109t-199 40.5z" />
    <glyph glyph-name="uniE615" unicode="&#xe615;" 
d="M832 768h-640q-79 0 -135.5 -56.5t-56.5 -135.5v-384q0 -79 56.5 -135.5t135.5 -56.5h640q79 0 135.5 56.5t56.5 135.5v384q0 79 -56.5 135.5t-135.5 56.5zM960 192q0 -53 -37.5 -90.5t-90.5 -37.5h-640q-53 0 -90.5 37.5t-37.5 90.5v384q0 53 37.5 90.5t90.5 37.5h640
q53 0 90.5 -37.5t37.5 -90.5v-384zM384 128l320 256l-320 256v-512z" />
    <glyph glyph-name="uniE616" unicode="&#xe616;" 
d="M87 769q-22 1 -26 2l-2 50h23q34 0 64 -2q76 -4 94 -4q49 0 97 2q66 2 83 3q32 0 50 1l-1 -8l1 -37v-5q-34 -5 -71 -5q-34 0 -45 -14q-7 -8 -7 -75v-19v-15l1 -131l8 -160q3 -70 29 -114q20 -34 55 -54q50 -26 100 -26q60 0 110 16q32 10 56 29q28 20 38 37q21 31 30 64
q12 42 12 131q0 45 -2 74t-6 70t-8 91l-2 33q-3 38 -14 51q-19 20 -44 19l-57 -1l-8 2l1 49h48l117 -6q44 -2 112 6l11 -2q3 -21 3 -28q0 -5 -2 -18q-26 -7 -49 -8q-42 -6 -45 -9q-8 -9 -8 -24v-15q0 -11 1 -18q5 -11 13 -226q4 -111 -9 -174q-8 -43 -23 -70
q-22 -36 -64 -70q-43 -33 -104 -50q-63 -20 -146 -20q-95 0 -162.5 26.5t-101.5 69.5q-35 43 -48 112q-9 45 -9 135v191q0 107 -9 121q-15 21 -84 22v1zM937 -37v37q0 8 -5.5 13t-13.5 5h-841q-8 0 -13 -5t-5 -13v-37q0 -8 5 -13t13 -5h841q8 0 13.5 5t5.5 13z" />
    <glyph glyph-name="uniE617" unicode="&#xe617;" 
d="M438 -12q36 -16 70 -16q188 0 188 167q0 57 -21 90q-13 22 -30.5 37t-34 23.5t-40.5 12.5t-42 5t-47 1q-37 0 -51 -5q0 -27 3 -80t3 -79q0 -4 -1 -33.5t2 -48t2.5 -41.5t6.5 -33h-8zM439 360q21 -3 54 -3q41 0 71.5 6.5t55 22.5t37.5 45t13 71q0 34 -14.5 60.5t-39.5 41
t-54 21.5t-62 7q-25 0 -65 -6q0 -25 2 -75.5t2 -76.5q0 -13 2.5 -39.5t2.5 -39.5v-35h-5zM174 -84l1 47q7 2 42 8t53 13q4 6 6.5 14t4 17t3 16t1.5 19t3 17v33q0 490 -12 512q-2 4 -11 7t-22 5.5t-24.5 4t-24 2.5t-15.5 1l-2 42q49 0 170 5t187 5q11 0 33.5 -2.5t34.5 -2.5
q34 0 67.5 -6.5t64.5 -21t54 -35.5t37 -52.5t14 -68.5q0 -26 -8.5 -47.5t-19.5 -36t-32 -29t-36.5 -22.5t-42.5 -20q78 -18 129 -67t51 -124q0 -50 -17.5 -89.5t-47 -65.5t-69 -43t-81.5 -24t-88 -7q-22 0 -66 1.5t-66 1.5q-53 0 -153.5 -5.5t-115.5 -5.5z" />
    <glyph glyph-name="uniE618" unicode="&#xe618;" 
d="M256 -66h512v147h-512v-147zM256 300h512v219h-91q-23 0 -39 16t-16 39v92h-366v-366zM914 263.5q0 14.5 -10.5 25.5t-25.5 11t-26 -11t-11 -25.5t11 -25.5t26 -11t25.5 11t10.5 25.5zM987 263v-237q0 -8 -5 -13.5t-13 -5.5h-128v-91q0 -23 -16 -39t-39 -16h-548
q-23 0 -39 16t-16 39v91h-128q-8 0 -13 5.5t-5 13.5v237q0 46 32 78t77 32h37v311q0 23 16 39t39 16h384q23 0 50 -11.5t43 -27.5l87 -87q16 -16 27.5 -43.5t11.5 -50.5v-146h37q45 0 77 -32t32 -78z" />
    <glyph glyph-name="uniE619" unicode="&#xe619;" 
d="M128 0h768v85h-768v-85zM128 555v-342l171 171zM469 171h427v85h-427v-85zM128 768v-85h768v85h-768zM469 512h427v85h-427v-85zM469 341h427v86h-427v-86z" />
    <glyph glyph-name="uniE61A" unicode="&#xe61a;" 
d="M469 171h427v85h-427v-85zM128 384l171 -171v342zM128 0h768v85h-768v-85zM128 768v-85h768v85h-768zM469 512h427v85h-427v-85zM469 341h427v86h-427v-86z" />
    <glyph glyph-name="uniE61B" unicode="&#xe61b;" 
d="M648 94l140 -166l141 166h-281zM285 317l81 260l81 -260h-162zM439 677h-123l-184 -583h85l43 139h214l44 -139h107zM95 35h566v-75h-566v75z" />
    <glyph glyph-name="uniE61C" unicode="&#xe61c;" 
d="M68 1q0 -10 -1 -31.5t-1 -32.5q19 0 61.5 1t63.5 1h190q1 20 1 62l-128 4q68 185 75 207l341 1q8 0 9 -7q14 -34 42 -110t31 -84q2 -7 -3 -7l-111 -4q0 -10 -0.5 -31.5t-0.5 -32.5q27 0 90.5 1t97.5 1h133q2 20 2 62l-87 4q-6 14 -130.5 347.5t-181.5 478.5q-45 0 -76 -2
q-43 -106 -160 -396.5t-171 -422.5q-1 -5 -7 -5zM512 678q87 -238 145 -401l-299 1q-5 0 -3 8q24 61 75.5 196.5t75.5 195.5h6z" />
    <glyph glyph-name="uniE61D" unicode="&#xe61d;" 
d="M296 224l90 288l89 -288h-179zM466 623h-136l-204 -646h94l49 154h236l49 -154h118zM680 127l52 138l52 -138h-104zM779 329h-79l-64 -171l28 -87v2h137l29 -89h68z" />
    <glyph glyph-name="uniE61E" unicode="&#xe61e;" 
d="M725 -96h-426q-53 0 -90.5 37.5t-37.5 90.5v512q0 53 37.5 90.5t90.5 37.5h426q53 0 90.5 -37.5t37.5 -90.5v-512q0 -53 -37.5 -90.5t-90.5 -37.5zM299 587q-18 0 -30.5 -12.5t-12.5 -30.5v-512q0 -18 12.5 -30.5t30.5 -12.5h426q18 0 30.5 12.5t12.5 30.5v512
q0 18 -12.5 30.5t-30.5 12.5h-426zM683 331h-342q-9 0 -15 6t-6 15t6 15t15 6h342q8 0 14.5 -6t6.5 -15t-6.5 -15t-14.5 -6zM683 459h-342q-9 0 -15 6t-6 15t6 15t15 6h342q8 0 14.5 -6t6.5 -15t-6.5 -15t-14.5 -6zM683 203h-342q-9 0 -15 6t-6 15t6 15t15 6h342
q8 0 14.5 -6t6.5 -15t-6.5 -15t-14.5 -6zM683 75h-342q-9 0 -15 6t-6 15t6 15t15 6h342q8 0 14.5 -6t6.5 -15t-6.5 -15t-14.5 -6z" />
    <glyph glyph-name="uniE61F" unicode="&#xe61f;" horiz-adv-x="1027" 
d="M676 774q-6 5 -14.5 5t-14.5 -5l-641 -642q-6 -6 -6 -14.5t6 -14.5l124 -125q15 -14 35 -14h400q20 0 35 14l421 421q6 6 6 14.5t-6 15.5zM560 56q-14 -15 -35 -15h-308q-21 0 -36 15l-58 58q-6 6 -6 14.5t6 14.5l235 236q6 5 14.5 5t15.5 -5l234 -234q5 -6 5 -14.5
t-5 -14.5zM148 -98h741v-69h-741v69z" />
    <glyph glyph-name="uniE620" unicode="&#xe620;" 
d="M768 768v-64h-128l-192 -576h128v-64h-384v64h128l192 576h-128v64h384z" />
    <glyph glyph-name="uniE621" unicode="&#xe621;" 
d="M24 799zM47 799zM70 799zM94 799zM117 799zM140 799zM163 799zM187 799zM210 799zM233 799zM256 799zM280 799zM303 799zM326 799zM349 799zM373 799zM396 799zM419 799zM442 799zM466 799zM489 799zM512 799zM535 799zM558 799zM582 799zM605 799zM628 799zM651 799z
M675 799zM698 799zM721 799zM744 799zM768 799zM791 799zM814 799zM837 799zM861 799zM884 799zM907 799zM930 799zM954 799zM977 799zM1000 799zM1 776zM1 753zM1 730zM1 706zM1 683zM1 660zM1 637zM1 613zM1 590zM1 567zM1 544zM1 520zM1 497zM1 474zM1 451zM1 427zM1 404
zM1 381zM1 358zM1 334zM1 311zM1 288zM1 265zM1 242zM1 218zM1 195zM1 172zM1 149zM1 125zM1 102zM1 79zM1 56zM1 32zM1 9zM1 -14zM1 -37zM1 -61zM1 -84zM1 -107zM1 -130zM1 -154zM1 -177zM1 -200zM118 -106q-68 68 -68 164t68 164l98 99q43 43 105 59q5 -47 24 -89
q-37 -10 -63 -36l-99 -98q-40 -41 -40 -99t40.5 -99t98.5 -41t99 41l98 99q32 32 39 76t-12 82l-93 -92q-13 -14 -32.5 -14t-33 13.5t-13.5 33t14 32.5l102 102q-46 67 -38 150.5t67 142.5l99 98q68 68 164 68t164 -68t68 -164t-68 -164l-98 -99q-43 -43 -105 -59
q-6 47 -24 89q37 10 63 36l99 98q40 41 40 99t-40.5 98.5t-98.5 40.5t-99 -40l-98 -99q-32 -32 -39 -76t12 -82l93 92q13 14 32.5 14t33 -13.5t13.5 -33t-14 -32.5l-102 -102q46 -67 38 -150.5t-67 -142.5l-99 -98q-68 -68 -164 -68t-164 68z" />
    <glyph glyph-name="uniE622" unicode="&#xe622;" horiz-adv-x="1025" 
d="M477 221q7 -14 7 -30q0 -27 -19 -46l-163 -163q-19 -19 -46.5 -19t-46.5 19l-99 99q-20 19 -20 46t20 47l163 163q19 19 46 19q16 0 30 -7l65 65q-42 32 -95 32q-65 0 -110 -45l-163 -163q-46 -46 -46 -111t46 -110l99 -99q45 -46 110 -46t111 46l163 163q42 42 45.5 101
t-32.5 104zM979 751l-100 99q-45 46 -110 46t-110 -46l-164 -163q-41 -42 -45 -101t32 -104l65 65q-7 14 -7 30q0 27 19 46l164 163q19 20 46 20t46 -20l100 -99q19 -19 19 -46t-19 -47l-164 -163q-19 -19 -46 -19q-16 0 -30 7l-65 -65q42 -32 95 -32q65 0 110 45l164 163
q45 46 45 111t-45 110zM233 617l-192 192l46 46l192 -192zM384 896h64v-192h-64v192zM0 512h192v-64h-192v64zM791 151l192 -192l-46 -46l-192 192zM576 64h64v-192h-64v192zM832 320h192v-64h-192v64z" />
  </font>
</defs>
</svg>
